<svg width="32" height="32" viewBox="0 0 32 32" fill="none" xmlns="http://www.w3.org/2000/svg">
<path d="M15.9996 22.8453C18.4496 20.9078 20.3014 19.0491 21.5551 17.2691C22.8087 15.4892 23.4355 13.7653 23.4355 12.0975C23.4355 10.7069 23.1818 9.52583 22.6744 8.55414C22.167 7.58245 21.5389 6.79422 20.79 6.18944C20.0412 5.58466 19.2348 5.1455 18.3709 4.87194C17.5069 4.59836 16.7171 4.46157 16.0012 4.46157C15.2854 4.46157 14.495 4.59836 13.63 4.87194C12.765 5.1455 11.9581 5.58466 11.2092 6.18944C10.4604 6.79422 9.83227 7.58245 9.32485 8.55414C8.81745 9.52583 8.56375 10.7069 8.56375 12.0975C8.56375 13.7653 9.19057 15.4892 10.4442 17.2691C11.6979 19.0491 13.5497 20.9078 15.9996 22.8453ZM15.9996 24.2804C13.1136 22.1037 10.9647 20.006 9.55308 17.9871C8.14139 15.9682 7.43555 14.0043 7.43555 12.0954C7.43555 10.6536 7.69296 9.38894 8.20778 8.30141C8.72258 7.21387 9.38851 6.30031 10.2056 5.56071C11.0226 4.82111 11.944 4.26498 12.9696 3.89234C13.9952 3.5197 15.0051 3.33337 15.9992 3.33337C16.9933 3.33337 18.0034 3.5197 19.0292 3.89234C20.0552 4.26498 20.9766 4.82111 21.7937 5.56071C22.6108 6.30031 23.2767 7.21412 23.7915 8.30214C24.3063 9.39016 24.5637 10.6561 24.5637 12.1001C24.5637 14.0117 23.8579 15.9755 22.4462 17.9915C21.0345 20.0074 18.8857 22.1037 15.9996 24.2804ZM16.003 13.7949C16.5381 13.7949 16.9875 13.6119 17.3513 13.2458C17.7152 12.8798 17.8971 12.4293 17.8971 11.8941C17.8971 11.359 17.7141 10.9096 17.348 10.5458C16.982 10.182 16.5314 10 15.9963 10C15.4612 10 15.0117 10.1831 14.6479 10.5491C14.2841 10.9151 14.1022 11.3657 14.1022 11.9008C14.1022 12.4359 14.2852 12.8854 14.6513 13.2492C15.0173 13.613 15.4679 13.7949 16.003 13.7949ZM7.43555 28.6667V27.5385H24.5637V28.6667H7.43555Z" fill="#999999"/>
</svg>
