<svg width="32" height="32" viewBox="0 0 32 32" fill="none" xmlns="http://www.w3.org/2000/svg">
<path d="M6.38626 26.6667C5.87495 26.6667 5.5115 26.4358 5.29593 25.974C5.08037 25.5122 5.14354 25.0849 5.48543 24.6923L13.4632 15.2308V6.46157H11.4871C11.3273 6.46157 11.1933 6.40703 11.0852 6.29794C10.9771 6.18883 10.923 6.05364 10.923 5.89237C10.923 5.73111 10.9771 5.59762 11.0852 5.49191C11.1933 5.38622 11.3273 5.33337 11.4871 5.33337H20.5128C20.6726 5.33337 20.8066 5.38792 20.9147 5.49701C21.0228 5.6061 21.0769 5.74128 21.0769 5.90257C21.0769 6.06384 21.0228 6.19733 20.9147 6.30304C20.8066 6.40873 20.6726 6.46157 20.5128 6.46157H18.5367V15.2308L26.5145 24.6923C26.8564 25.0849 26.9195 25.5122 26.704 25.974C26.4884 26.4358 26.125 26.6667 25.6137 26.6667H6.38626ZM6.25636 25.5385H25.7436L17.4085 15.6376V6.46157H14.5914V15.6376L6.25636 25.5385Z" fill="#999999"/>
</svg>
