<svg width="32" height="32" viewBox="0 0 32 32" fill="none" xmlns="http://www.w3.org/2000/svg">
<path d="M21.5114 11.4119V7.28201H10.4892V11.4119H9.36097V6.15381H22.6396V11.4119H21.5114ZM23.6789 15.8136C24.0225 15.8136 24.315 15.6929 24.5563 15.4514C24.7976 15.2099 24.9183 14.9203 24.9183 14.5826C24.9183 14.2449 24.7975 13.9554 24.5561 13.7141C24.3146 13.4728 24.0251 13.3521 23.6875 13.3521C23.3382 13.3521 23.0458 13.4729 22.8101 13.7144C22.5745 13.9559 22.4567 14.2455 22.4567 14.5832C22.4567 14.9209 22.5745 15.2104 22.8101 15.4517C23.0458 15.693 23.3354 15.8136 23.6789 15.8136ZM21.5114 25.5384V19.1521H10.4892V25.5384H21.5114ZM22.6396 26.6666H9.36097V21.1658H4.76953V13.9213C4.76953 13.2197 5.01254 12.6261 5.49856 12.1404C5.98461 11.6548 6.58375 11.4119 7.296 11.4119H24.7046C25.4204 11.4119 26.0205 11.6548 26.5047 12.1404C26.9889 12.6261 27.2311 13.2197 27.2311 13.9213V21.1658H22.6396V26.6666ZM26.1029 20.0376V13.9166C26.1029 13.5317 25.9689 13.2061 25.7009 12.9397C25.4329 12.6733 25.1008 12.5401 24.7046 12.5401H7.296C6.89982 12.5401 6.56773 12.675 6.29973 12.9447C6.03173 13.2144 5.89773 13.54 5.89773 13.9213V20.0376H9.36097V18.0239H22.6396V20.0376H26.1029Z" fill="#999999"/>
</svg>
