<svg width="32" height="32" viewBox="0 0 32 32" fill="none" xmlns="http://www.w3.org/2000/svg">
<path d="M25.6031 15.2119C25.4094 12.6723 24.4226 10.5126 22.6428 8.73287C20.8631 6.95309 18.7091 5.97203 16.1809 5.7897V4.6615C17.6037 4.73672 18.9383 5.06108 20.1847 5.63457C21.4312 6.20808 22.5255 6.96877 23.4676 7.91663C24.4098 8.8645 25.1676 9.96165 25.7411 11.2081C26.3146 12.4545 26.6447 13.7891 26.7313 15.2119H25.6031ZM20.1723 15.2119C19.9786 14.1863 19.5213 13.3068 18.8005 12.5735C18.0797 11.8401 17.2065 11.3908 16.1809 11.2256V10.0974C17.5193 10.2626 18.6588 10.8189 19.5992 11.7662C20.5397 12.7135 21.1068 13.8621 21.3005 15.2119H20.1723ZM25.2082 26.6666C23.0253 26.6666 20.7589 26.0984 18.4091 24.9619C16.0592 23.8255 13.8564 22.2293 11.8005 20.1735C9.76179 18.1176 8.17417 15.919 7.03771 13.5777C5.90124 11.2364 5.33301 8.97431 5.33301 6.7914C5.33301 6.38213 5.46943 6.0368 5.74227 5.7554C6.01514 5.474 6.35621 5.3333 6.76547 5.3333H9.82577C10.2027 5.3333 10.5216 5.44825 10.7826 5.67817C11.0436 5.90808 11.2253 6.21078 11.3279 6.58626L12.01 9.61763C12.0612 9.97737 12.0458 10.2974 11.9638 10.5777C11.8817 10.8581 11.7387 11.0888 11.5348 11.2699L8.58171 14.0256C9.17204 15.0655 9.80381 16.026 10.477 16.9072C11.1502 17.7884 11.8655 18.6136 12.6227 19.3829C13.4404 20.2154 14.3188 20.9787 15.2578 21.673C16.1968 22.3673 17.223 23.0193 18.3364 23.629L21.2099 20.6889C21.4305 20.4478 21.672 20.2882 21.9344 20.2098C22.1969 20.1314 22.4882 20.1145 22.8082 20.1589L25.4134 20.723C25.7906 20.8005 26.0937 20.9835 26.3228 21.2719C26.5518 21.5602 26.6663 21.8907 26.6663 22.2632V25.2342C26.6663 25.6434 26.5256 25.9845 26.2442 26.2574C25.9628 26.5302 25.6175 26.6666 25.2082 26.6666ZM8.03131 13.0017L10.7527 10.4803C10.8267 10.4119 10.8766 10.3179 10.9022 10.1983C10.9279 10.0786 10.9293 9.96749 10.9065 9.86493L10.2492 6.87176C10.2264 6.73501 10.1695 6.63244 10.0783 6.56406C9.98713 6.49569 9.87317 6.4615 9.73644 6.4615H6.82274C6.72019 6.4615 6.63472 6.49569 6.56634 6.56406C6.49796 6.63244 6.46377 6.71791 6.46377 6.82046C6.46775 7.735 6.60679 8.7105 6.88087 9.74696C7.15494 10.7834 7.53842 11.8683 8.03131 13.0017ZM19.4227 24.1572C20.3305 24.6216 21.3212 24.9669 22.395 25.1931C23.4688 25.4194 24.3968 25.5384 25.1792 25.5504C25.2817 25.5504 25.3672 25.5162 25.4356 25.4478C25.504 25.3795 25.5381 25.294 25.5381 25.1914V22.3145C25.5381 22.1777 25.504 22.0638 25.4356 21.9726C25.3672 21.8815 25.2646 21.8245 25.1279 21.8017L22.5638 21.2692C22.4612 21.2464 22.3715 21.2478 22.2945 21.2735C22.2176 21.2991 22.1364 21.349 22.051 21.423L19.4227 24.1572Z" fill="#999999"/>
</svg>
