<svg width="200" height="29" viewBox="0 0 200 29" fill="none" xmlns="http://www.w3.org/2000/svg">
<path d="M14.7971 15.4838H27.203V27.9769H20.7648V25.6728C20.3813 26.0248 20.0851 26.2932 19.2868 26.7952C18.1644 27.4749 16.0381 28.5973 11.9039 28.5973C5.70274 28.5973 0 25.1116 0 17.8158C0 17.0768 0.059257 16.31 0.20566 15.571C0.589095 13.5039 1.62437 11.1998 3.86922 9.3384C6.79378 6.91579 10.663 6.1768 14.473 6.1768C16.0973 6.1768 17.7531 6.35458 19.3461 6.67875C21.8872 7.23996 23.7765 8.15672 25.373 9.98675C26.0213 10.7257 26.2305 11.2277 26.5512 11.9074L19.1683 12.6743C17.8088 11.2556 16.1845 10.8721 14.5915 10.8721C9.65909 10.8721 7.67917 14.5043 7.67917 17.6067C7.67917 21.8593 10.7501 23.8392 14.1453 23.8392C17.1012 23.8392 19.7574 22.2427 20.2315 20.2036H14.7971V15.4838Z" fill="#24272A"/>
<path d="M52.4821 7.12493V11.8203H37.9813V15.2154H51.391V19.9421H37.9534V23.2501H52.7819V27.9769H30.5112V7.12493H52.4821Z" fill="#24272A"/>
<path d="M55.2246 7.12493H61.3979L67.8083 14.1558C69.6383 16.1357 70.0217 16.6062 71.4997 18.5269C71.3812 15.6616 71.3533 14.6577 71.3533 11.8516V7.12493H78.7083V27.9769H72.5071L64.8558 19.353C63.7927 18.1121 63.4371 17.6694 62.4925 16.4877C62.5831 20.0885 62.5831 20.8903 62.611 23.5464V27.9769H55.2281V7.12493H55.2246Z" fill="#24272A"/>
<path d="M92.4917 0H98.3653L110.492 27.9769H102.363L100.718 23.0026H90.2957L88.6504 27.9769H80.4414L92.4917 0ZM95.4686 7.76631L91.8434 18.3457H99.1705L95.4686 7.76631Z" fill="#00A0DF"/>
<path d="M106.721 7.12493H114.55L117.886 15.3061C118.743 17.4045 118.917 17.8786 119.629 20.0014C120.277 18.1992 120.486 17.638 121.312 15.6023C122.435 12.7963 123.616 9.95887 124.798 7.12493H132.624L123.114 27.9769H116.174L106.721 7.12493Z" fill="#24272A"/>
<path d="M141.08 7.12493V27.9769H133.606V7.12493H141.08Z" fill="#24272A"/>
<path d="M166.362 7.12493V11.8203H151.858V15.2154H165.267V19.9421H151.83V23.2501H166.658V27.9769H144.388V7.12493H166.362Z" fill="#24272A"/>
<path d="M167.304 7.12493H174.599L176.342 17.0489C176.667 18.7918 176.757 19.2938 176.935 20.831C177.144 19.5029 177.2 19.2066 177.496 17.7287L180.006 7.12493H187.626L188.895 13.0333C189.78 16.8433 189.93 17.5823 190.46 20.7404C190.606 19.5587 190.665 19.2066 190.815 18.1435L192.736 7.12493H200L194.981 27.9769H186.977L184.583 18.5862C184.081 16.6376 183.966 16.1043 183.697 14.0372C183.492 15.8986 183.405 16.432 182.843 18.6733L180.421 27.9769H172.358L167.304 7.12493Z" fill="#24272A"/>
</svg>
